<svg width="248" height="247" viewBox="0 0 248 247" fill="none" xmlns="http://www.w3.org/2000/svg">
<line x1="1" y1="122.5" x2="246" y2="122.5" stroke="black"/>
<line x1="1" y1="122.5" x2="246" y2="122.5" stroke="white"/>
<path d="M123 1C25.4 6.6 1 84.3333 1 122.5H247C247 115.5 241 7 123 1Z" fill="black" stroke="white"/>
<path d="M125 246.5C222.6 240.9 247 163.167 247 125L1 125C1 132 7 240.5 125 246.5Z" fill="black" stroke="white"/>
<g id="roundbox" class="langbox">
<circle cx="124" cy="123" r="42.5" fill="black" stroke="white"/>
<path d="M113.531 100.663H112.336C112.302 100.467 112.239 100.293 112.148 100.142C112.056 99.9886 111.942 99.8587 111.806 99.7521C111.669 99.6456 111.514 99.5657 111.339 99.5124C111.166 99.457 110.98 99.4293 110.78 99.4293C110.424 99.4293 110.108 99.5188 109.834 99.6978C109.559 99.8746 109.344 100.135 109.188 100.478C109.032 100.819 108.955 101.235 108.955 101.727C108.955 102.228 109.032 102.65 109.188 102.993C109.346 103.334 109.561 103.592 109.834 103.766C110.108 103.939 110.423 104.025 110.776 104.025C110.972 104.025 111.156 104 111.326 103.949C111.499 103.895 111.653 103.817 111.79 103.715C111.928 103.613 112.044 103.487 112.138 103.338C112.234 103.189 112.3 103.018 112.336 102.827L113.531 102.833C113.487 103.144 113.39 103.436 113.241 103.709C113.094 103.982 112.901 104.222 112.662 104.431C112.423 104.638 112.144 104.8 111.825 104.917C111.505 105.032 111.15 105.089 110.76 105.089C110.185 105.089 109.672 104.956 109.22 104.69C108.768 104.424 108.412 104.039 108.153 103.536C107.893 103.033 107.763 102.43 107.763 101.727C107.763 101.022 107.894 100.419 108.156 99.9183C108.418 99.4155 108.775 99.0309 109.226 98.7646C109.678 98.4982 110.189 98.3651 110.76 98.3651C111.125 98.3651 111.464 98.4162 111.777 98.5185C112.09 98.6207 112.369 98.771 112.614 98.9691C112.859 99.1651 113.061 99.4059 113.218 99.6914C113.378 99.9748 113.482 100.299 113.531 100.663ZM115.723 102.124V105H114.566V98.4545H115.698V100.925H115.755C115.87 100.648 116.048 100.43 116.289 100.27C116.532 100.108 116.841 100.027 117.216 100.027C117.557 100.027 117.854 100.098 118.107 100.241C118.361 100.384 118.557 100.593 118.695 100.868C118.836 101.142 118.906 101.478 118.906 101.874V105H117.749V102.053C117.749 101.723 117.664 101.466 117.494 101.283C117.325 101.098 117.089 101.005 116.784 101.005C116.58 101.005 116.396 101.05 116.234 101.139C116.075 101.227 115.949 101.353 115.857 101.52C115.768 101.686 115.723 101.887 115.723 102.124ZM122.227 105.096C121.748 105.096 121.332 104.99 120.981 104.779C120.629 104.569 120.356 104.273 120.162 103.894C119.971 103.515 119.875 103.072 119.875 102.565C119.875 102.058 119.971 101.613 120.162 101.232C120.356 100.85 120.629 100.554 120.981 100.343C121.332 100.132 121.748 100.027 122.227 100.027C122.706 100.027 123.122 100.132 123.473 100.343C123.825 100.554 124.097 100.85 124.288 101.232C124.482 101.613 124.579 102.058 124.579 102.565C124.579 103.072 124.482 103.515 124.288 103.894C124.097 104.273 123.825 104.569 123.473 104.779C123.122 104.99 122.706 105.096 122.227 105.096ZM122.233 104.169C122.493 104.169 122.711 104.098 122.885 103.955C123.06 103.81 123.19 103.616 123.275 103.373C123.363 103.13 123.406 102.86 123.406 102.561C123.406 102.261 123.363 101.989 123.275 101.746C123.19 101.501 123.06 101.306 122.885 101.162C122.711 101.017 122.493 100.944 122.233 100.944C121.967 100.944 121.745 101.017 121.569 101.162C121.394 101.306 121.263 101.501 121.176 101.746C121.09 101.989 121.048 102.261 121.048 102.561C121.048 102.86 121.09 103.13 121.176 103.373C121.263 103.616 121.394 103.81 121.569 103.955C121.745 104.098 121.967 104.169 122.233 104.169ZM127.703 105.096C127.223 105.096 126.808 104.99 126.456 104.779C126.105 104.569 125.832 104.273 125.638 103.894C125.446 103.515 125.35 103.072 125.35 102.565C125.35 102.058 125.446 101.613 125.638 101.232C125.832 100.85 126.105 100.554 126.456 100.343C126.808 100.132 127.223 100.027 127.703 100.027C128.182 100.027 128.597 100.132 128.949 100.343C129.301 100.554 129.572 100.85 129.764 101.232C129.958 101.613 130.055 102.058 130.055 102.565C130.055 103.072 129.958 103.515 129.764 103.894C129.572 104.273 129.301 104.569 128.949 104.779C128.597 104.99 128.182 105.096 127.703 105.096ZM127.709 104.169C127.969 104.169 128.186 104.098 128.361 103.955C128.536 103.81 128.666 103.616 128.751 103.373C128.838 103.13 128.882 102.86 128.882 102.561C128.882 102.261 128.838 101.989 128.751 101.746C128.666 101.501 128.536 101.306 128.361 101.162C128.186 101.017 127.969 100.944 127.709 100.944C127.443 100.944 127.221 101.017 127.044 101.162C126.869 101.306 126.738 101.501 126.651 101.746C126.566 101.989 126.523 102.261 126.523 102.561C126.523 102.86 126.566 103.13 126.651 103.373C126.738 103.616 126.869 103.81 127.044 103.955C127.221 104.098 127.443 104.169 127.709 104.169ZM134.917 101.388L133.862 101.504C133.832 101.397 133.78 101.297 133.706 101.203C133.633 101.109 133.535 101.034 133.411 100.976C133.288 100.919 133.137 100.89 132.958 100.89C132.717 100.89 132.514 100.942 132.35 101.047C132.188 101.151 132.109 101.286 132.111 101.452C132.109 101.595 132.161 101.711 132.267 101.801C132.376 101.89 132.555 101.964 132.804 102.021L133.642 102.2C134.106 102.3 134.451 102.459 134.677 102.676C134.905 102.894 135.02 103.178 135.022 103.53C135.02 103.839 134.93 104.112 134.751 104.348C134.574 104.582 134.328 104.766 134.012 104.898C133.697 105.03 133.335 105.096 132.926 105.096C132.325 105.096 131.841 104.97 131.475 104.719C131.108 104.465 130.89 104.113 130.82 103.661L131.948 103.552C131.999 103.774 132.108 103.941 132.274 104.054C132.44 104.167 132.656 104.223 132.922 104.223C133.197 104.223 133.418 104.167 133.584 104.054C133.752 103.941 133.837 103.801 133.837 103.635C133.837 103.495 133.782 103.379 133.674 103.287C133.567 103.195 133.401 103.125 133.175 103.076L132.338 102.9C131.867 102.802 131.518 102.637 131.293 102.405C131.067 102.17 130.955 101.874 130.957 101.516C130.955 101.214 131.037 100.952 131.203 100.73C131.371 100.506 131.605 100.334 131.903 100.212C132.203 100.089 132.55 100.027 132.942 100.027C133.517 100.027 133.97 100.15 134.3 100.395C134.632 100.64 134.838 100.971 134.917 101.388ZM138.15 105.096C137.657 105.096 137.232 104.994 136.874 104.789C136.519 104.582 136.245 104.29 136.053 103.913C135.861 103.534 135.765 103.088 135.765 102.574C135.765 102.069 135.861 101.626 136.053 101.245C136.247 100.861 136.517 100.563 136.865 100.35C137.212 100.135 137.62 100.027 138.089 100.027C138.391 100.027 138.677 100.076 138.945 100.174C139.216 100.27 139.455 100.419 139.661 100.621C139.87 100.824 140.034 101.082 140.153 101.395C140.273 101.706 140.332 102.077 140.332 102.507V102.862H136.309V102.082H139.223C139.221 101.86 139.173 101.663 139.08 101.491C138.986 101.316 138.855 101.179 138.687 101.078C138.52 100.978 138.326 100.928 138.105 100.928C137.868 100.928 137.661 100.986 137.482 101.101C137.303 101.214 137.163 101.363 137.063 101.548C136.965 101.732 136.915 101.933 136.913 102.152V102.833C136.913 103.119 136.965 103.364 137.069 103.568C137.174 103.771 137.32 103.926 137.507 104.035C137.695 104.141 137.914 104.195 138.166 104.195C138.334 104.195 138.486 104.171 138.623 104.124C138.759 104.075 138.877 104.004 138.977 103.91C139.078 103.816 139.153 103.7 139.204 103.562L140.285 103.683C140.216 103.969 140.086 104.218 139.895 104.431C139.705 104.642 139.462 104.806 139.166 104.923C138.87 105.038 138.531 105.096 138.15 105.096ZM105.638 109.455V116H104.481V109.455H105.638ZM108.24 116.099C107.929 116.099 107.649 116.044 107.399 115.933C107.152 115.82 106.956 115.654 106.811 115.434C106.669 115.215 106.597 114.944 106.597 114.623C106.597 114.346 106.648 114.116 106.751 113.935C106.853 113.754 106.992 113.609 107.169 113.501C107.346 113.392 107.545 113.31 107.767 113.255C107.991 113.197 108.222 113.156 108.461 113.13C108.748 113.1 108.981 113.074 109.16 113.05C109.339 113.025 109.469 112.986 109.55 112.935C109.633 112.882 109.675 112.8 109.675 112.689V112.67C109.675 112.429 109.604 112.243 109.461 112.11C109.318 111.978 109.113 111.912 108.844 111.912C108.561 111.912 108.336 111.974 108.17 112.098C108.006 112.221 107.895 112.367 107.837 112.536L106.757 112.382C106.842 112.084 106.983 111.835 107.179 111.634C107.375 111.432 107.615 111.281 107.898 111.18C108.181 111.078 108.495 111.027 108.838 111.027C109.074 111.027 109.31 111.055 109.544 111.11C109.778 111.165 109.992 111.257 110.186 111.385C110.38 111.511 110.536 111.682 110.653 111.9C110.772 112.117 110.832 112.388 110.832 112.714V116H109.72V115.326H109.681C109.611 115.462 109.512 115.59 109.384 115.709C109.258 115.826 109.1 115.921 108.908 115.994C108.718 116.064 108.496 116.099 108.24 116.099ZM108.54 115.249C108.773 115.249 108.974 115.203 109.144 115.112C109.315 115.018 109.446 114.894 109.538 114.741C109.631 114.587 109.678 114.42 109.678 114.239V113.661C109.642 113.69 109.58 113.718 109.493 113.744C109.408 113.769 109.312 113.792 109.205 113.811C109.099 113.83 108.993 113.847 108.889 113.862C108.784 113.877 108.694 113.89 108.617 113.9C108.445 113.924 108.29 113.962 108.154 114.015C108.017 114.069 107.91 114.143 107.831 114.239C107.752 114.333 107.713 114.454 107.713 114.603C107.713 114.816 107.79 114.977 107.946 115.086C108.102 115.195 108.3 115.249 108.54 115.249ZM113.152 113.124V116H111.995V111.091H113.101V111.925H113.159C113.272 111.65 113.452 111.432 113.699 111.27C113.948 111.108 114.256 111.027 114.622 111.027C114.961 111.027 115.256 111.099 115.508 111.244C115.761 111.389 115.957 111.599 116.096 111.874C116.236 112.149 116.306 112.482 116.304 112.874V116H115.147V113.053C115.147 112.725 115.061 112.468 114.891 112.283C114.723 112.098 114.489 112.005 114.191 112.005C113.989 112.005 113.809 112.05 113.651 112.139C113.495 112.227 113.373 112.353 113.283 112.52C113.196 112.686 113.152 112.887 113.152 113.124ZM119.615 117.943C119.199 117.943 118.842 117.887 118.544 117.774C118.246 117.663 118.006 117.514 117.825 117.326C117.644 117.139 117.518 116.931 117.448 116.703L118.49 116.451C118.537 116.547 118.605 116.641 118.694 116.735C118.784 116.831 118.904 116.91 119.055 116.972C119.209 117.036 119.402 117.067 119.634 117.067C119.962 117.067 120.234 116.988 120.449 116.828C120.664 116.67 120.772 116.41 120.772 116.048V115.118H120.714C120.654 115.237 120.567 115.36 120.452 115.485C120.339 115.611 120.189 115.717 120.001 115.802C119.816 115.887 119.583 115.93 119.301 115.93C118.924 115.93 118.582 115.841 118.276 115.664C117.971 115.485 117.728 115.219 117.547 114.865C117.368 114.51 117.278 114.064 117.278 113.529C117.278 112.99 117.368 112.536 117.547 112.165C117.728 111.792 117.972 111.51 118.279 111.318C118.586 111.124 118.928 111.027 119.305 111.027C119.592 111.027 119.829 111.076 120.014 111.174C120.202 111.27 120.351 111.386 120.462 111.522C120.572 111.657 120.657 111.783 120.714 111.903H120.778V111.091H121.919V116.08C121.919 116.5 121.819 116.847 121.619 117.122C121.418 117.397 121.144 117.602 120.797 117.739C120.45 117.875 120.056 117.943 119.615 117.943ZM119.624 115.022C119.869 115.022 120.078 114.962 120.251 114.843C120.423 114.724 120.554 114.552 120.644 114.328C120.733 114.105 120.778 113.836 120.778 113.523C120.778 113.214 120.733 112.944 120.644 112.711C120.556 112.479 120.426 112.299 120.254 112.171C120.083 112.041 119.874 111.976 119.624 111.976C119.366 111.976 119.151 112.043 118.979 112.178C118.806 112.312 118.676 112.496 118.589 112.73C118.501 112.963 118.458 113.227 118.458 113.523C118.458 113.824 118.501 114.087 118.589 114.312C118.678 114.536 118.809 114.711 118.982 114.837C119.157 114.96 119.371 115.022 119.624 115.022ZM126.234 113.935V111.091H127.391V116H126.269V115.127H126.218C126.107 115.402 125.925 115.627 125.671 115.802C125.42 115.977 125.11 116.064 124.741 116.064C124.419 116.064 124.135 115.993 123.888 115.85C123.643 115.705 123.451 115.495 123.312 115.22C123.174 114.943 123.105 114.609 123.105 114.217V111.091H124.262V114.038C124.262 114.349 124.347 114.596 124.517 114.779C124.688 114.962 124.912 115.054 125.189 115.054C125.359 115.054 125.524 115.012 125.684 114.929C125.844 114.846 125.975 114.723 126.077 114.559C126.181 114.392 126.234 114.185 126.234 113.935ZM129.993 116.099C129.682 116.099 129.402 116.044 129.152 115.933C128.905 115.82 128.709 115.654 128.564 115.434C128.422 115.215 128.35 114.944 128.35 114.623C128.35 114.346 128.401 114.116 128.504 113.935C128.606 113.754 128.745 113.609 128.922 113.501C129.099 113.392 129.298 113.31 129.52 113.255C129.744 113.197 129.975 113.156 130.213 113.13C130.501 113.1 130.734 113.074 130.913 113.05C131.092 113.025 131.222 112.986 131.303 112.935C131.386 112.882 131.428 112.8 131.428 112.689V112.67C131.428 112.429 131.357 112.243 131.214 112.11C131.071 111.978 130.865 111.912 130.597 111.912C130.314 111.912 130.089 111.974 129.923 112.098C129.759 112.221 129.648 112.367 129.59 112.536L128.51 112.382C128.595 112.084 128.736 111.835 128.932 111.634C129.128 111.432 129.368 111.281 129.651 111.18C129.934 111.078 130.248 111.027 130.591 111.027C130.827 111.027 131.063 111.055 131.297 111.11C131.531 111.165 131.745 111.257 131.939 111.385C132.133 111.511 132.289 111.682 132.406 111.9C132.525 112.117 132.585 112.388 132.585 112.714V116H131.473V115.326H131.434C131.364 115.462 131.265 115.59 131.137 115.709C131.011 115.826 130.853 115.921 130.661 115.994C130.471 116.064 130.249 116.099 129.993 116.099ZM130.293 115.249C130.526 115.249 130.727 115.203 130.897 115.112C131.068 115.018 131.199 114.894 131.291 114.741C131.384 114.587 131.431 114.42 131.431 114.239V113.661C131.395 113.69 131.333 113.718 131.246 113.744C131.161 113.769 131.065 113.792 130.958 113.811C130.852 113.83 130.746 113.847 130.642 113.862C130.537 113.877 130.447 113.89 130.37 113.9C130.197 113.924 130.043 113.962 129.907 114.015C129.77 114.069 129.663 114.143 129.584 114.239C129.505 114.333 129.466 114.454 129.466 114.603C129.466 114.816 129.543 114.977 129.699 115.086C129.854 115.195 130.053 115.249 130.293 115.249ZM135.883 117.943C135.468 117.943 135.111 117.887 134.813 117.774C134.514 117.663 134.275 117.514 134.093 117.326C133.912 117.139 133.787 116.931 133.716 116.703L134.758 116.451C134.805 116.547 134.873 116.641 134.963 116.735C135.052 116.831 135.173 116.91 135.324 116.972C135.477 117.036 135.67 117.067 135.902 117.067C136.231 117.067 136.502 116.988 136.717 116.828C136.933 116.67 137.04 116.41 137.04 116.048V115.118H136.983C136.923 115.237 136.836 115.36 136.721 115.485C136.608 115.611 136.457 115.717 136.27 115.802C136.085 115.887 135.851 115.93 135.57 115.93C135.193 115.93 134.851 115.841 134.544 115.664C134.239 115.485 133.996 115.219 133.815 114.865C133.636 114.51 133.547 114.064 133.547 113.529C133.547 112.99 133.636 112.536 133.815 112.165C133.996 111.792 134.24 111.51 134.547 111.318C134.854 111.124 135.196 111.027 135.573 111.027C135.861 111.027 136.097 111.076 136.283 111.174C136.47 111.27 136.619 111.386 136.73 111.522C136.841 111.657 136.925 111.783 136.983 111.903H137.047V111.091H138.188V116.08C138.188 116.5 138.087 116.847 137.887 117.122C137.687 117.397 137.413 117.602 137.066 117.739C136.718 117.875 136.324 117.943 135.883 117.943ZM135.893 115.022C136.138 115.022 136.347 114.962 136.519 114.843C136.692 114.724 136.823 114.552 136.912 114.328C137.002 114.105 137.047 113.836 137.047 113.523C137.047 113.214 137.002 112.944 136.912 112.711C136.825 112.479 136.695 112.299 136.522 112.171C136.352 112.041 136.142 111.976 135.893 111.976C135.635 111.976 135.42 112.043 135.247 112.178C135.075 112.312 134.945 112.496 134.857 112.73C134.77 112.963 134.726 113.227 134.726 113.523C134.726 113.824 134.77 114.087 134.857 114.312C134.947 114.536 135.078 114.711 135.25 114.837C135.425 114.96 135.639 115.022 135.893 115.022ZM141.547 116.096C141.054 116.096 140.629 115.994 140.271 115.789C139.916 115.582 139.642 115.29 139.45 114.913C139.258 114.534 139.162 114.088 139.162 113.574C139.162 113.069 139.258 112.626 139.45 112.245C139.644 111.861 139.914 111.563 140.262 111.35C140.609 111.135 141.017 111.027 141.486 111.027C141.788 111.027 142.074 111.076 142.342 111.174C142.613 111.27 142.852 111.419 143.058 111.621C143.267 111.824 143.431 112.082 143.55 112.395C143.67 112.706 143.729 113.077 143.729 113.507V113.862H139.706V113.082H142.62C142.618 112.86 142.57 112.663 142.477 112.491C142.383 112.316 142.252 112.179 142.083 112.078C141.917 111.978 141.723 111.928 141.502 111.928C141.265 111.928 141.058 111.986 140.879 112.101C140.7 112.214 140.56 112.363 140.46 112.548C140.362 112.732 140.312 112.933 140.31 113.152V113.833C140.31 114.119 140.362 114.364 140.466 114.568C140.571 114.771 140.717 114.926 140.904 115.035C141.092 115.141 141.311 115.195 141.563 115.195C141.731 115.195 141.883 115.171 142.02 115.124C142.156 115.075 142.274 115.004 142.374 114.91C142.474 114.816 142.55 114.7 142.601 114.562L143.682 114.683C143.613 114.969 143.483 115.218 143.292 115.431C143.102 115.642 142.859 115.806 142.563 115.923C142.267 116.038 141.928 116.096 141.547 116.096ZM102.273 138V131.455H104.779C105.252 131.455 105.645 131.529 105.958 131.678C106.273 131.825 106.509 132.027 106.664 132.282C106.822 132.538 106.901 132.828 106.901 133.152C106.901 133.418 106.85 133.646 106.747 133.836C106.645 134.023 106.508 134.175 106.335 134.293C106.163 134.41 105.97 134.494 105.757 134.545V134.609C105.989 134.622 106.212 134.693 106.425 134.823C106.64 134.951 106.816 135.132 106.952 135.366C107.088 135.601 107.157 135.884 107.157 136.217C107.157 136.555 107.075 136.86 106.91 137.131C106.746 137.399 106.499 137.611 106.169 137.767C105.839 137.922 105.423 138 104.923 138H102.273ZM103.459 137.009H104.734C105.164 137.009 105.474 136.927 105.664 136.763C105.856 136.597 105.952 136.384 105.952 136.124C105.952 135.93 105.904 135.755 105.808 135.6C105.712 135.442 105.576 135.319 105.399 135.229C105.222 135.137 105.011 135.092 104.766 135.092H103.459V137.009ZM103.459 134.238H104.632C104.836 134.238 105.021 134.201 105.185 134.126C105.349 134.05 105.478 133.942 105.571 133.804C105.667 133.663 105.715 133.497 105.715 133.305C105.715 133.051 105.626 132.843 105.447 132.679C105.27 132.515 105.007 132.433 104.657 132.433H103.459V134.238ZM108.92 134.689H110.368C110.994 134.689 111.479 134.841 111.822 135.146C112.165 135.451 112.338 135.85 112.34 136.344C112.338 136.666 112.259 136.952 112.103 137.201C111.95 137.45 111.726 137.646 111.432 137.789C111.14 137.93 110.785 138 110.368 138H108.137V133.091H109.252V137.051H110.368C110.619 137.051 110.826 136.987 110.988 136.859C111.15 136.729 111.231 136.563 111.231 136.36C111.231 136.147 111.15 135.974 110.988 135.839C110.826 135.705 110.619 135.638 110.368 135.638H108.92V134.689ZM112.95 138V133.091H114.107V138H112.95ZM119.234 131.276L119.637 132.023C119.494 132.147 119.334 132.237 119.158 132.292C118.981 132.347 118.773 132.384 118.534 132.401C118.298 132.415 118.017 132.426 117.691 132.433C117.324 132.441 117.025 132.51 116.793 132.64C116.56 132.77 116.382 132.967 116.259 133.232C116.135 133.494 116.054 133.828 116.016 134.235H116.07C116.224 133.935 116.439 133.706 116.716 133.548C116.993 133.39 117.318 133.311 117.691 133.311C118.098 133.311 118.457 133.403 118.768 133.586C119.081 133.767 119.325 134.031 119.5 134.376C119.676 134.721 119.765 135.138 119.765 135.629C119.765 136.134 119.67 136.571 119.48 136.942C119.291 137.311 119.021 137.595 118.672 137.795C118.325 137.996 117.912 138.096 117.435 138.096C116.96 138.096 116.546 137.993 116.195 137.786C115.845 137.577 115.575 137.269 115.383 136.862C115.193 136.453 115.099 135.949 115.099 135.35V134.909C115.099 133.755 115.314 132.893 115.744 132.324C116.175 131.755 116.813 131.465 117.659 131.455C117.91 131.45 118.135 131.449 118.333 131.451C118.533 131.453 118.708 131.444 118.857 131.423C119.006 131.401 119.132 131.352 119.234 131.276ZM117.441 137.169C117.678 137.169 117.882 137.108 118.055 136.987C118.228 136.863 118.36 136.689 118.451 136.463C118.545 136.237 118.592 135.969 118.592 135.661C118.592 135.356 118.545 135.097 118.451 134.884C118.358 134.669 118.224 134.505 118.052 134.392C117.879 134.279 117.674 134.222 117.435 134.222C117.256 134.222 117.095 134.254 116.952 134.318C116.81 134.382 116.688 134.476 116.588 134.599C116.488 134.723 116.411 134.873 116.358 135.05C116.305 135.227 116.276 135.43 116.272 135.661C116.272 136.123 116.376 136.49 116.585 136.763C116.794 137.034 117.079 137.169 117.441 137.169ZM122.923 138.096C122.43 138.096 122.005 137.994 121.647 137.789C121.292 137.582 121.018 137.29 120.826 136.913C120.634 136.534 120.538 136.088 120.538 135.574C120.538 135.069 120.634 134.626 120.826 134.245C121.02 133.861 121.29 133.563 121.638 133.35C121.985 133.135 122.393 133.027 122.862 133.027C123.164 133.027 123.45 133.076 123.718 133.174C123.989 133.27 124.228 133.419 124.434 133.621C124.643 133.824 124.807 134.082 124.926 134.395C125.046 134.706 125.105 135.077 125.105 135.507V135.862H121.082V135.082H123.996C123.994 134.86 123.946 134.663 123.853 134.491C123.759 134.316 123.628 134.179 123.459 134.078C123.293 133.978 123.099 133.928 122.878 133.928C122.641 133.928 122.434 133.986 122.255 134.101C122.076 134.214 121.936 134.363 121.836 134.548C121.738 134.732 121.688 134.933 121.686 135.152V135.833C121.686 136.119 121.738 136.364 121.842 136.568C121.947 136.771 122.093 136.926 122.28 137.035C122.468 137.141 122.687 137.195 122.939 137.195C123.107 137.195 123.259 137.171 123.396 137.124C123.532 137.075 123.65 137.004 123.75 136.91C123.85 136.816 123.926 136.7 123.977 136.562L125.057 136.683C124.989 136.969 124.859 137.218 124.668 137.431C124.478 137.642 124.235 137.806 123.939 137.923C123.643 138.038 123.304 138.096 122.923 138.096ZM126.084 139.841V133.091H127.222V133.903H127.289C127.349 133.783 127.433 133.657 127.542 133.522C127.65 133.386 127.797 133.27 127.983 133.174C128.168 133.076 128.405 133.027 128.692 133.027C129.071 133.027 129.413 133.124 129.718 133.318C130.025 133.51 130.268 133.794 130.447 134.171C130.628 134.546 130.718 135.006 130.718 135.552C130.718 136.091 130.63 136.549 130.453 136.926C130.276 137.303 130.036 137.591 129.731 137.789C129.426 137.987 129.081 138.086 128.695 138.086C128.414 138.086 128.181 138.039 127.995 137.946C127.81 137.852 127.661 137.739 127.548 137.607C127.437 137.473 127.351 137.346 127.289 137.227H127.241V139.841H126.084ZM127.219 135.545C127.219 135.863 127.264 136.141 127.353 136.38C127.445 136.618 127.576 136.805 127.746 136.939C127.919 137.071 128.128 137.137 128.373 137.137C128.628 137.137 128.842 137.069 129.015 136.933C129.188 136.794 129.318 136.605 129.405 136.367C129.494 136.126 129.539 135.852 129.539 135.545C129.539 135.241 129.495 134.97 129.408 134.734C129.321 134.497 129.191 134.312 129.018 134.178C128.846 134.043 128.63 133.976 128.373 133.976C128.125 133.976 127.916 134.041 127.743 134.171C127.57 134.301 127.439 134.483 127.35 134.718C127.262 134.952 127.219 135.228 127.219 135.545ZM132.825 136.434L134.79 133.091H135.979V138H134.86V134.654L132.901 138H131.709V133.091H132.825V136.434ZM136.617 134.04V133.091H140.913V134.04H139.325V138H138.206V134.04H136.617ZM143.805 138.096C143.313 138.096 142.888 137.994 142.53 137.789C142.174 137.582 141.901 137.29 141.709 136.913C141.517 136.534 141.421 136.088 141.421 135.574C141.421 135.069 141.517 134.626 141.709 134.245C141.903 133.861 142.173 133.563 142.521 133.35C142.868 133.135 143.276 133.027 143.745 133.027C144.047 133.027 144.333 133.076 144.601 133.174C144.872 133.27 145.11 133.419 145.317 133.621C145.526 133.824 145.69 134.082 145.809 134.395C145.929 134.706 145.988 135.077 145.988 135.507V135.862H141.964V135.082H144.879C144.877 134.86 144.829 134.663 144.735 134.491C144.642 134.316 144.511 134.179 144.342 134.078C144.176 133.978 143.982 133.928 143.761 133.928C143.524 133.928 143.316 133.986 143.137 134.101C142.958 134.214 142.819 134.363 142.719 134.548C142.621 134.732 142.571 134.933 142.568 135.152V135.833C142.568 136.119 142.621 136.364 142.725 136.568C142.83 136.771 142.975 136.926 143.163 137.035C143.35 137.141 143.57 137.195 143.821 137.195C143.99 137.195 144.142 137.171 144.278 137.124C144.415 137.075 144.533 137.004 144.633 136.91C144.733 136.816 144.809 136.7 144.86 136.562L145.94 136.683C145.872 136.969 145.742 137.218 145.55 137.431C145.361 137.642 145.118 137.806 144.822 137.923C144.526 138.038 144.187 138.096 143.805 138.096ZM116.457 149V145.031H115.409C115.143 145.031 114.938 145.092 114.795 145.216C114.653 145.339 114.582 145.493 114.585 145.676C114.582 145.859 114.65 146.011 114.786 146.13C114.922 146.249 115.117 146.309 115.371 146.309H116.822V147.153H115.371C114.979 147.153 114.64 147.091 114.354 146.967C114.069 146.844 113.849 146.669 113.696 146.443C113.543 146.217 113.466 145.953 113.466 145.651C113.466 145.335 113.544 145.061 113.699 144.829C113.857 144.595 114.081 144.414 114.37 144.286C114.662 144.156 115.009 144.091 115.409 144.091H117.541V149H116.457ZM113.287 149L114.658 146.482H115.799L114.425 149H113.287ZM118.434 147.654H119.581C119.592 147.838 119.674 147.979 119.828 148.08C119.981 148.18 120.18 148.23 120.425 148.23C120.675 148.23 120.884 148.175 121.055 148.067C121.227 147.956 121.314 147.789 121.314 147.565C121.314 147.433 121.281 147.317 121.215 147.217C121.149 147.114 121.056 147.036 120.937 146.98C120.817 146.925 120.677 146.897 120.515 146.897H119.764V146.076H120.515C120.756 146.076 120.938 146.02 121.061 145.909C121.187 145.799 121.25 145.659 121.25 145.491C121.25 145.31 121.184 145.163 121.052 145.05C120.922 144.937 120.742 144.88 120.512 144.88C120.281 144.88 120.09 144.933 119.936 145.037C119.785 145.141 119.706 145.276 119.7 145.44H118.559C118.563 145.154 118.648 144.906 118.814 144.695C118.983 144.484 119.209 144.32 119.492 144.203C119.778 144.086 120.099 144.027 120.457 144.027C120.841 144.027 121.172 144.085 121.451 144.2C121.73 144.315 121.945 144.475 122.097 144.682C122.248 144.887 122.324 145.127 122.324 145.404C122.324 145.671 122.241 145.891 122.074 146.066C121.908 146.239 121.684 146.362 121.403 146.437V146.488C121.597 146.499 121.772 146.554 121.927 146.654C122.083 146.752 122.206 146.885 122.298 147.054C122.39 147.222 122.436 147.417 122.436 147.638C122.436 147.939 122.349 148.199 122.177 148.418C122.004 148.636 121.767 148.803 121.464 148.92C121.164 149.037 120.819 149.096 120.432 149.096C120.055 149.096 119.717 149.039 119.419 148.926C119.122 148.811 118.887 148.646 118.712 148.431C118.537 148.216 118.445 147.957 118.434 147.654ZM124.129 145.689H125.577C126.204 145.689 126.688 145.841 127.031 146.146C127.374 146.451 127.547 146.85 127.549 147.344C127.547 147.666 127.468 147.952 127.313 148.201C127.159 148.45 126.936 148.646 126.642 148.789C126.35 148.93 125.995 149 125.577 149H123.346V144.091H124.462V148.051H125.577C125.829 148.051 126.035 147.987 126.197 147.859C126.359 147.729 126.44 147.563 126.44 147.36C126.44 147.147 126.359 146.974 126.197 146.839C126.035 146.705 125.829 146.638 125.577 146.638H124.129V145.689ZM128.16 149V144.091H129.317V149H128.16ZM130.509 149V144.091H131.666V146.072H132.088L133.565 144.091H134.958L133.14 146.501L134.978 149H133.578L132.232 147.15H131.666V149H130.509Z" fill="white"/>
<path d="M106.026 40V33.4545H108.481C108.983 33.4545 109.405 33.5483 109.746 33.7358C110.089 33.9233 110.348 34.1811 110.523 34.5092C110.7 34.8352 110.788 35.206 110.788 35.6214C110.788 36.0412 110.7 36.4141 110.523 36.7401C110.346 37.0661 110.085 37.3228 109.74 37.5103C109.395 37.6957 108.97 37.7884 108.465 37.7884H106.838V36.8136H108.305C108.599 36.8136 108.84 36.7624 109.027 36.6602C109.215 36.5579 109.353 36.4173 109.443 36.2383C109.534 36.0593 109.58 35.8537 109.58 35.6214C109.58 35.3892 109.534 35.1847 109.443 35.0078C109.353 34.831 109.213 34.6935 109.024 34.5955C108.836 34.4954 108.595 34.4453 108.298 34.4453H107.212V40H106.026ZM112.486 41.8409C112.328 41.8409 112.182 41.8281 112.048 41.8026C111.916 41.7791 111.811 41.7514 111.732 41.7195L112 40.8182C112.168 40.8672 112.319 40.8906 112.451 40.8885C112.583 40.8864 112.699 40.8448 112.799 40.7638C112.901 40.685 112.988 40.5529 113.058 40.3675L113.157 40.1023L111.377 35.0909H112.604L113.736 38.7983H113.787L114.921 35.0909H116.152L114.186 40.5945C114.095 40.8544 113.973 41.0771 113.822 41.2624C113.671 41.4499 113.485 41.5927 113.266 41.6907C113.048 41.7908 112.788 41.8409 112.486 41.8409ZM118.927 40.0959C118.437 40.0959 118.016 39.9883 117.664 39.7731C117.315 39.5579 117.045 39.2607 116.856 38.8814C116.668 38.5 116.574 38.0611 116.574 37.5646C116.574 37.0661 116.67 36.6261 116.862 36.2447C117.054 35.8612 117.324 35.5629 117.674 35.3498C118.025 35.1346 118.441 35.027 118.92 35.027C119.319 35.027 119.671 35.1005 119.978 35.2475C120.287 35.3924 120.533 35.598 120.716 35.8643C120.9 36.1286 121.004 36.4375 121.03 36.7912H119.924C119.879 36.5547 119.773 36.3576 119.604 36.1999C119.438 36.0401 119.215 35.9602 118.936 35.9602C118.7 35.9602 118.492 36.0241 118.313 36.152C118.134 36.2777 117.995 36.4588 117.894 36.6953C117.796 36.9318 117.747 37.2152 117.747 37.5455C117.747 37.88 117.796 38.1676 117.894 38.4084C117.992 38.647 118.13 38.8313 118.307 38.9613C118.486 39.0891 118.696 39.1531 118.936 39.1531C119.107 39.1531 119.259 39.1211 119.393 39.0572C119.53 38.9911 119.644 38.8963 119.735 38.7727C119.827 38.6491 119.89 38.4989 119.924 38.3221H121.03C121.002 38.6694 120.9 38.9773 120.723 39.2457C120.546 39.5121 120.305 39.7209 120.001 39.8722C119.696 40.0213 119.338 40.0959 118.927 40.0959ZM124.121 40.0959C123.631 40.0959 123.21 39.9883 122.859 39.7731C122.509 39.5579 122.24 39.2607 122.05 38.8814C121.863 38.5 121.769 38.0611 121.769 37.5646C121.769 37.0661 121.865 36.6261 122.056 36.2447C122.248 35.8612 122.519 35.5629 122.868 35.3498C123.22 35.1346 123.635 35.027 124.115 35.027C124.513 35.027 124.866 35.1005 125.173 35.2475C125.481 35.3924 125.728 35.598 125.911 35.8643C126.094 36.1286 126.198 36.4375 126.224 36.7912H125.118C125.073 36.5547 124.967 36.3576 124.799 36.1999C124.632 36.0401 124.41 35.9602 124.131 35.9602C123.894 35.9602 123.686 36.0241 123.507 36.152C123.328 36.2777 123.189 36.4588 123.089 36.6953C122.991 36.9318 122.942 37.2152 122.942 37.5455C122.942 37.88 122.991 38.1676 123.089 38.4084C123.187 38.647 123.324 38.8313 123.501 38.9613C123.68 39.0891 123.89 39.1531 124.131 39.1531C124.301 39.1531 124.453 39.1211 124.588 39.0572C124.724 38.9911 124.838 38.8963 124.93 38.7727C125.021 38.6491 125.084 38.4989 125.118 38.3221H126.224C126.196 38.6694 126.094 38.9773 125.917 39.2457C125.74 39.5121 125.5 39.7209 125.195 39.8722C124.89 40.0213 124.532 40.0959 124.121 40.0959ZM127.174 40V35.0909H128.331V37.0724H128.753L130.229 35.0909H131.623L129.804 37.5007L131.642 40H130.242L128.897 38.1495H128.331V40H127.174ZM133.413 38.4339L135.379 35.0909H136.568V40H135.449V36.6538L133.49 40H132.298V35.0909H133.413V38.4339ZM138.871 38.4339L140.837 35.0909H142.026V40H140.907V36.6538L138.948 40H137.756V35.0909H138.871V38.4339ZM140.521 33.4034H141.387C141.387 33.7763 141.251 34.0788 140.981 34.3111C140.712 34.5412 140.348 34.6562 139.888 34.6562C139.432 34.6562 139.069 34.5412 138.798 34.3111C138.53 34.0788 138.396 33.7763 138.398 33.4034H139.258C139.258 33.5568 139.305 33.6942 139.399 33.8157C139.495 33.935 139.658 33.9947 139.888 33.9947C140.114 33.9947 140.275 33.935 140.37 33.8157C140.468 33.6964 140.519 33.5589 140.521 33.4034ZM107.542 62V55.4545H109.997C110.499 55.4545 110.921 55.5419 111.262 55.7166C111.605 55.8913 111.864 56.1364 112.039 56.4517C112.216 56.7649 112.304 57.1303 112.304 57.5479C112.304 57.9677 112.215 58.332 112.036 58.641C111.859 58.9478 111.598 59.1854 111.253 59.3537C110.907 59.5199 110.483 59.603 109.981 59.603H108.232V58.6186H109.821C110.115 58.6186 110.356 58.5781 110.543 58.4972C110.731 58.4141 110.869 58.2937 110.959 58.136C111.05 57.9762 111.096 57.7802 111.096 57.5479C111.096 57.3157 111.05 57.1175 110.959 56.9535C110.867 56.7873 110.727 56.6616 110.54 56.5763C110.352 56.489 110.111 56.4453 109.814 56.4453H108.728V62H107.542ZM110.923 59.0341L112.544 62H111.221L109.629 59.0341H110.923ZM116.473 59.9354V57.0909H117.63V62H116.509V61.1275H116.457C116.347 61.4023 116.164 61.6271 115.911 61.8018C115.659 61.9766 115.349 62.0639 114.981 62.0639C114.659 62.0639 114.375 61.9925 114.127 61.8498C113.882 61.7049 113.691 61.495 113.552 61.2202C113.414 60.9432 113.344 60.6087 113.344 60.2166V57.0909H114.501V60.0376C114.501 60.3487 114.587 60.5959 114.757 60.7791C114.928 60.9624 115.151 61.054 115.428 61.054C115.599 61.054 115.764 61.0124 115.924 60.9293C116.083 60.8462 116.214 60.7227 116.317 60.5586C116.421 60.3924 116.473 60.1847 116.473 59.9354ZM122.7 58.3885L121.645 58.5036C121.616 58.397 121.563 58.2969 121.489 58.2031C121.416 58.1094 121.318 58.0337 121.195 57.9762C121.071 57.9187 120.92 57.8899 120.741 57.8899C120.5 57.8899 120.298 57.9421 120.134 58.0465C119.972 58.1509 119.892 58.2862 119.894 58.4524C119.892 58.5952 119.944 58.7113 120.051 58.8008C120.159 58.8903 120.338 58.9638 120.587 59.0213L121.425 59.2003C121.889 59.3004 122.234 59.4592 122.46 59.6765C122.688 59.8938 122.803 60.1783 122.805 60.5298C122.803 60.8388 122.713 61.1115 122.534 61.348C122.357 61.5824 122.111 61.7656 121.796 61.8977C121.48 62.0298 121.118 62.0959 120.709 62.0959C120.108 62.0959 119.624 61.9702 119.258 61.7188C118.891 61.4652 118.673 61.1126 118.603 60.6609L119.731 60.5522C119.782 60.7738 119.891 60.9411 120.057 61.054C120.223 61.1669 120.439 61.2234 120.706 61.2234C120.981 61.2234 121.201 61.1669 121.367 61.054C121.536 60.9411 121.62 60.8015 121.62 60.6353C121.62 60.4947 121.565 60.3786 121.457 60.2869C121.35 60.1953 121.184 60.125 120.958 60.076L120.121 59.9002C119.65 59.8022 119.302 59.6371 119.076 59.4048C118.85 59.1705 118.738 58.8743 118.74 58.5163C118.738 58.2138 118.82 57.9517 118.986 57.7301C119.155 57.5064 119.388 57.3338 119.686 57.2124C119.987 57.0888 120.333 57.027 120.725 57.027C121.3 57.027 121.753 57.1495 122.083 57.3945C122.416 57.6396 122.621 57.9709 122.7 58.3885ZM127.639 58.3885L126.585 58.5036C126.555 58.397 126.503 58.2969 126.428 58.2031C126.356 58.1094 126.258 58.0337 126.134 57.9762C126.011 57.9187 125.859 57.8899 125.68 57.8899C125.44 57.8899 125.237 57.9421 125.073 58.0465C124.911 58.1509 124.831 58.2862 124.833 58.4524C124.831 58.5952 124.883 58.7113 124.99 58.8008C125.099 58.8903 125.278 58.9638 125.527 59.0213L126.364 59.2003C126.829 59.3004 127.174 59.4592 127.4 59.6765C127.628 59.8938 127.743 60.1783 127.745 60.5298C127.743 60.8388 127.652 61.1115 127.473 61.348C127.296 61.5824 127.05 61.7656 126.735 61.8977C126.42 62.0298 126.057 62.0959 125.648 62.0959C125.047 62.0959 124.564 61.9702 124.197 61.7188C123.831 61.4652 123.612 61.1126 123.542 60.6609L124.67 60.5522C124.722 60.7738 124.83 60.9411 124.996 61.054C125.163 61.1669 125.379 61.2234 125.645 61.2234C125.92 61.2234 126.141 61.1669 126.307 61.054C126.475 60.9411 126.559 60.8015 126.559 60.6353C126.559 60.4947 126.505 60.3786 126.396 60.2869C126.29 60.1953 126.123 60.125 125.898 60.076L125.06 59.9002C124.589 59.8022 124.241 59.6371 124.015 59.4048C123.789 59.1705 123.677 58.8743 123.68 58.5163C123.677 58.2138 123.759 57.9517 123.926 57.7301C124.094 57.5064 124.327 57.3338 124.626 57.2124C124.926 57.0888 125.272 57.027 125.664 57.027C126.24 57.027 126.692 57.1495 127.023 57.3945C127.355 57.6396 127.561 57.9709 127.639 58.3885ZM128.699 62V57.0909H129.856V62H128.699ZM129.281 56.3942C129.097 56.3942 128.94 56.3335 128.808 56.212C128.676 56.0884 128.609 55.9403 128.609 55.7678C128.609 55.593 128.676 55.445 128.808 55.3235C128.94 55.1999 129.097 55.1381 129.281 55.1381C129.466 55.1381 129.624 55.1999 129.754 55.3235C129.886 55.445 129.952 55.593 129.952 55.7678C129.952 55.9403 129.886 56.0884 129.754 56.212C129.624 56.3335 129.466 56.3942 129.281 56.3942ZM132.458 62.0991C132.147 62.0991 131.867 62.0437 131.618 61.9329C131.371 61.82 131.175 61.6538 131.03 61.4343C130.887 61.2148 130.816 60.9442 130.816 60.6225C130.816 60.3455 130.867 60.1165 130.969 59.9354C131.071 59.7543 131.211 59.6094 131.388 59.5007C131.564 59.392 131.764 59.31 131.985 59.2546C132.209 59.1971 132.44 59.1555 132.679 59.13C132.966 59.1001 133.2 59.0735 133.379 59.0501C133.558 59.0245 133.688 58.9862 133.769 58.935C133.852 58.8817 133.893 58.7997 133.893 58.6889V58.6697C133.893 58.429 133.822 58.2425 133.679 58.1104C133.536 57.9783 133.331 57.9123 133.062 57.9123C132.779 57.9123 132.554 57.9741 132.388 58.0977C132.224 58.2212 132.113 58.3672 132.056 58.5355L130.975 58.3821C131.061 58.0838 131.201 57.8345 131.397 57.6342C131.593 57.4318 131.833 57.2805 132.116 57.1804C132.4 57.0781 132.713 57.027 133.056 57.027C133.292 57.027 133.528 57.0547 133.762 57.1101C133.997 57.1655 134.211 57.2571 134.405 57.3849C134.599 57.5107 134.754 57.6822 134.871 57.8995C134.991 58.1168 135.05 58.3885 135.05 58.7145V62H133.938V61.3256H133.9C133.829 61.462 133.73 61.5898 133.602 61.7092C133.477 61.8263 133.318 61.9212 133.126 61.9936C132.937 62.0639 132.714 62.0991 132.458 62.0991ZM132.759 61.2489C132.991 61.2489 133.192 61.2031 133.363 61.1115C133.533 61.0178 133.664 60.8942 133.756 60.7408C133.85 60.5874 133.896 60.4201 133.896 60.239V59.6605C133.86 59.6903 133.798 59.718 133.711 59.7436C133.626 59.7692 133.53 59.7915 133.423 59.8107C133.317 59.8299 133.211 59.8469 133.107 59.8619C133.003 59.8768 132.912 59.8896 132.835 59.9002C132.663 59.9237 132.508 59.962 132.372 60.0153C132.236 60.0685 132.128 60.1431 132.049 60.239C131.97 60.3327 131.931 60.4542 131.931 60.6033C131.931 60.8164 132.009 60.9773 132.164 61.0859C132.32 61.1946 132.518 61.2489 132.759 61.2489ZM137.371 59.1236V62H136.214V57.0909H137.319V57.9251H137.377C137.49 57.6502 137.67 57.4318 137.917 57.2699C138.166 57.108 138.474 57.027 138.841 57.027C139.18 57.027 139.475 57.0994 139.726 57.2443C139.98 57.3892 140.176 57.5991 140.314 57.8739C140.455 58.1488 140.524 58.4822 140.522 58.8743V62H139.365V59.0533C139.365 58.7251 139.28 58.4684 139.109 58.283C138.941 58.0977 138.708 58.005 138.409 58.005C138.207 58.005 138.027 58.0497 137.869 58.1392C137.714 58.2266 137.591 58.3533 137.502 58.5195C137.414 58.6857 137.371 58.8871 137.371 59.1236Z" fill="white"/>
</g>
<path d="M98.9212 190H97.6556L99.9599 183.455H101.424L103.731 190H102.466L100.717 184.797H100.666L98.9212 190ZM98.9628 187.434H102.414V188.386H98.9628V187.434ZM107.914 187.066V188.015H105.3V187.066H107.914ZM105.658 185.091V190H104.542V185.091H105.658ZM108.671 185.091V190H107.559V185.091H108.671ZM113.089 185.091V186.04H110.973V190H109.842V185.091H113.089ZM113.274 190L113.267 189.048H113.437C113.565 189.048 113.672 189.019 113.76 188.961C113.847 188.904 113.919 188.808 113.977 188.674C114.034 188.537 114.079 188.354 114.111 188.124C114.143 187.894 114.165 187.607 114.178 187.264L114.265 185.091H117.844V190H116.725V186.04H115.316L115.239 187.622C115.22 188.031 115.174 188.386 115.102 188.686C115.032 188.985 114.931 189.231 114.801 189.425C114.674 189.619 114.513 189.763 114.319 189.859C114.125 189.953 113.896 190 113.632 190H113.274ZM120.124 188.434L122.09 185.091H123.279V190H122.16V186.654L120.201 190H119.009V185.091H120.124V188.434ZM125.582 188.434L127.548 185.091H128.737V190H127.618V186.654L125.659 190H124.467V185.091H125.582V188.434ZM127.232 183.403H128.098C128.098 183.776 127.962 184.079 127.692 184.311C127.423 184.541 127.059 184.656 126.599 184.656C126.143 184.656 125.78 184.541 125.509 184.311C125.24 184.079 125.107 183.776 125.109 183.403H125.969C125.969 183.557 126.016 183.694 126.11 183.816C126.206 183.935 126.369 183.995 126.599 183.995C126.825 183.995 126.985 183.935 127.081 183.816C127.179 183.696 127.229 183.559 127.232 183.403ZM132.066 190.096C131.576 190.096 131.155 189.988 130.804 189.773C130.455 189.558 130.185 189.261 129.995 188.881C129.808 188.5 129.714 188.061 129.714 187.565C129.714 187.066 129.81 186.626 130.002 186.245C130.193 185.861 130.464 185.563 130.814 185.35C131.165 185.135 131.581 185.027 132.06 185.027C132.458 185.027 132.811 185.1 133.118 185.248C133.427 185.392 133.673 185.598 133.856 185.864C134.039 186.129 134.144 186.437 134.169 186.791H133.064C133.019 186.555 132.912 186.358 132.744 186.2C132.578 186.04 132.355 185.96 132.076 185.96C131.839 185.96 131.632 186.024 131.453 186.152C131.274 186.278 131.134 186.459 131.034 186.695C130.936 186.932 130.887 187.215 130.887 187.545C130.887 187.88 130.936 188.168 131.034 188.408C131.132 188.647 131.269 188.831 131.446 188.961C131.625 189.089 131.835 189.153 132.076 189.153C132.246 189.153 132.399 189.121 132.533 189.057C132.669 188.991 132.783 188.896 132.875 188.773C132.967 188.649 133.029 188.499 133.064 188.322H134.169C134.142 188.669 134.039 188.977 133.863 189.246C133.686 189.512 133.445 189.721 133.14 189.872C132.836 190.021 132.478 190.096 132.066 190.096ZM135.119 190V185.091H136.276V187.072H136.698L138.175 185.091H139.568L137.75 187.501L139.587 190H138.188L136.842 188.15H136.276V190H135.119ZM141.359 188.434L143.324 185.091H144.513V190H143.395V186.654L141.436 190H140.243V185.091H141.359V188.434ZM146.817 188.434L148.782 185.091H149.971V190H148.853V186.654L146.894 190H145.701V185.091H146.817V188.434ZM148.466 183.403H149.332C149.332 183.776 149.197 184.079 148.926 184.311C148.658 184.541 148.293 184.656 147.833 184.656C147.377 184.656 147.014 184.541 146.743 184.311C146.475 184.079 146.342 183.776 146.344 183.403H147.204C147.204 183.557 147.25 183.694 147.344 183.816C147.44 183.935 147.603 183.995 147.833 183.995C148.059 183.995 148.22 183.935 148.316 183.816C148.414 183.696 148.464 183.559 148.466 183.403ZM108.781 212V205.455H113.038V206.449H109.967V208.225H112.818V209.219H109.967V211.006H113.064V212H108.781ZM115.354 209.124V212H114.197V207.091H115.303V207.925H115.36C115.473 207.65 115.653 207.432 115.9 207.27C116.15 207.108 116.458 207.027 116.824 207.027C117.163 207.027 117.458 207.099 117.709 207.244C117.963 207.389 118.159 207.599 118.297 207.874C118.438 208.149 118.507 208.482 118.505 208.874V212H117.348V209.053C117.348 208.725 117.263 208.468 117.093 208.283C116.924 208.098 116.691 208.005 116.393 208.005C116.19 208.005 116.01 208.05 115.853 208.139C115.697 208.227 115.574 208.353 115.485 208.52C115.398 208.686 115.354 208.887 115.354 209.124ZM121.816 213.943C121.401 213.943 121.044 213.887 120.746 213.774C120.447 213.663 120.208 213.514 120.027 213.326C119.845 213.139 119.72 212.931 119.649 212.703L120.691 212.451C120.738 212.547 120.806 212.641 120.896 212.735C120.985 212.831 121.106 212.91 121.257 212.972C121.41 213.036 121.603 213.067 121.835 213.067C122.164 213.067 122.435 212.988 122.65 212.828C122.866 212.67 122.973 212.41 122.973 212.048V211.118H122.916C122.856 211.237 122.769 211.36 122.654 211.485C122.541 211.611 122.391 211.717 122.203 211.802C122.018 211.887 121.784 211.93 121.503 211.93C121.126 211.93 120.784 211.841 120.477 211.664C120.172 211.485 119.93 211.219 119.748 210.865C119.57 210.51 119.48 210.064 119.48 209.529C119.48 208.99 119.57 208.536 119.748 208.165C119.93 207.792 120.174 207.51 120.48 207.318C120.787 207.124 121.129 207.027 121.506 207.027C121.794 207.027 122.03 207.076 122.216 207.174C122.403 207.27 122.552 207.386 122.663 207.522C122.774 207.657 122.858 207.783 122.916 207.903H122.98V207.091H124.121V212.08C124.121 212.5 124.021 212.847 123.82 213.122C123.62 213.397 123.346 213.602 122.999 213.739C122.652 213.875 122.257 213.943 121.816 213.943ZM121.826 211.022C122.071 211.022 122.28 210.962 122.452 210.843C122.625 210.724 122.756 210.552 122.845 210.328C122.935 210.105 122.98 209.836 122.98 209.523C122.98 209.214 122.935 208.944 122.845 208.711C122.758 208.479 122.628 208.299 122.456 208.171C122.285 208.041 122.075 207.976 121.826 207.976C121.568 207.976 121.353 208.043 121.18 208.178C121.008 208.312 120.878 208.496 120.79 208.73C120.703 208.963 120.659 209.227 120.659 209.523C120.659 209.824 120.703 210.087 120.79 210.312C120.88 210.536 121.011 210.711 121.184 210.837C121.358 210.96 121.572 211.022 121.826 211.022ZM126.463 205.455V212H125.306V205.455H126.463ZM127.653 212V207.091H128.81V212H127.653ZM128.235 206.394C128.051 206.394 127.894 206.333 127.762 206.212C127.63 206.088 127.564 205.94 127.564 205.768C127.564 205.593 127.63 205.445 127.762 205.324C127.894 205.2 128.051 205.138 128.235 205.138C128.42 205.138 128.578 205.2 128.708 205.324C128.84 205.445 128.906 205.593 128.906 205.768C128.906 205.94 128.84 206.088 128.708 206.212C128.578 206.333 128.42 206.394 128.235 206.394ZM133.88 208.388L132.825 208.504C132.795 208.397 132.743 208.297 132.668 208.203C132.596 208.109 132.498 208.034 132.374 207.976C132.251 207.919 132.1 207.89 131.921 207.89C131.68 207.89 131.477 207.942 131.313 208.047C131.151 208.151 131.071 208.286 131.074 208.452C131.071 208.595 131.124 208.711 131.23 208.801C131.339 208.89 131.518 208.964 131.767 209.021L132.604 209.2C133.069 209.3 133.414 209.459 133.64 209.676C133.868 209.894 133.983 210.178 133.985 210.53C133.983 210.839 133.892 211.112 133.714 211.348C133.537 211.582 133.291 211.766 132.975 211.898C132.66 212.03 132.298 212.096 131.889 212.096C131.288 212.096 130.804 211.97 130.438 211.719C130.071 211.465 129.853 211.113 129.782 210.661L130.911 210.552C130.962 210.774 131.07 210.941 131.237 211.054C131.403 211.167 131.619 211.223 131.885 211.223C132.16 211.223 132.381 211.167 132.547 211.054C132.715 210.941 132.799 210.801 132.799 210.635C132.799 210.495 132.745 210.379 132.636 210.287C132.53 210.195 132.364 210.125 132.138 210.076L131.301 209.9C130.83 209.802 130.481 209.637 130.255 209.405C130.03 209.17 129.918 208.874 129.92 208.516C129.918 208.214 130 207.952 130.166 207.73C130.334 207.506 130.568 207.334 130.866 207.212C131.166 207.089 131.513 207.027 131.905 207.027C132.48 207.027 132.933 207.15 133.263 207.395C133.595 207.64 133.801 207.971 133.88 208.388ZM136.096 209.124V212H134.939V205.455H136.071V207.925H136.128C136.243 207.648 136.421 207.43 136.662 207.27C136.905 207.108 137.214 207.027 137.589 207.027C137.93 207.027 138.227 207.098 138.48 207.241C138.734 207.384 138.93 207.593 139.068 207.868C139.209 208.142 139.279 208.478 139.279 208.874V212H138.122V209.053C138.122 208.723 138.037 208.466 137.867 208.283C137.698 208.098 137.462 208.005 137.157 208.005C136.953 208.005 136.769 208.05 136.608 208.139C136.448 208.227 136.322 208.353 136.23 208.52C136.141 208.686 136.096 208.887 136.096 209.124Z" fill="white"/>
</svg>
